/* XPM */
static char *_504110186925[] = {
/* columns rows colors chars-per-pixel */
"16 16 161 2 ",
"   c #0F1E2C",
".  c #021032",
"X  c #041133",
"o  c #051333",
"O  c #021034",
"+  c #061438",
"@  c #081538",
"#  c #091639",
"$  c #0A1738",
"%  c #0D1B3C",
"&  c #0C1A3D",
"*  c #0D1B3D",
"=  c #0D1C3F",
"-  c #101F35",
";  c #101F37",
":  c #0E212D",
">  c #0F2638",
",  c #0F2F38",
"<  c #0F2A3D",
"1  c #112834",
"2  c #112935",
"3  c #112A36",
"4  c #112C37",
"5  c #10253B",
"6  c #11263E",
"7  c #11263F",
"8  c #132E38",
"9  c #132F39",
"0  c #10333D",
"q  c #12333D",
"w  c #13343D",
"e  c #15353E",
"r  c #15363F",
"t  c #0B1C40",
"y  c #0C1D40",
"u  c #0E1F48",
"i  c #111F40",
"p  c #0E2049",
"a  c #0E214B",
"s  c #122242",
"d  c #132342",
"f  c #132343",
"g  c #142343",
"h  c #132344",
"j  c #142344",
"k  c #162545",
"l  c #132C41",
"z  c #11234D",
"x  c #1E2D4A",
"c  c #1E2E4A",
"v  c #133841",
"b  c #153B43",
"n  c #153C43",
"m  c #103C44",
"M  c #113D45",
"N  c #133C45",
"B  c #113E44",
"V  c #133E46",
"C  c #152851",
"Z  c #152A55",
"A  c #152B56",
"S  c #1B315C",
"D  c #253853",
"F  c #2D3D58",
"G  c #1D3561",
"H  c #243E6B",
"J  c #144149",
"K  c #15424A",
"L  c #33445D",
"P  c #384961",
"I  c #384A63",
"U  c #274371",
"Y  c #2F4C7B",
"T  c #2E4D7F",
"R  c #31537E",
"E  c #31567E",
"W  c #435466",
"Q  c #405169",
"!  c #47576A",
"~  c #5C707C",
"^  c #64767F",
"/  c #2F4F81",
"(  c #335081",
")  c #335381",
"_  c #325182",
"`  c #355584",
"'  c #36588A",
"]  c #385E8A",
"[  c #39598D",
"{  c #3A5F8D",
"}  c #3A5C8E",
"|  c #395E8E",
" . c #3A5E92",
".. c #3B5F94",
"X. c #3E5F94",
"o. c #3C6096",
"O. c #6B7B83",
"+. c #707F85",
"@. c #707F88",
"#. c #4268A0",
"$. c #4268A1",
"%. c #456BA4",
"&. c #466CA5",
"*. c #466FA5",
"=. c #466DA6",
"-. c #476EA7",
";. c #4871AA",
":. c #4972AC",
">. c #4B74AE",
",. c #4C75AF",
"<. c #4B74B0",
"1. c #4E79B3",
"2. c #4F79B5",
"3. c #4F7AB4",
"4. c #527EB9",
"5. c #527EBA",
"6. c #537FBC",
"7. c #708087",
"8. c #7C8A93",
"9. c #7E8C93",
"0. c #5481BD",
"q. c #5583C0",
"w. c #5785C3",
"e. c #5785C4",
"r. c #829196",
"t. c #869094",
"y. c #899091",
"u. c #85939A",
"i. c #89979B",
"p. c #8F979B",
"a. c #91999C",
"s. c #9B9D9E",
"d. c #8F9DA3",
"f. c #8899A6",
"g. c #969FA3",
"h. c #949FA5",
"j. c #94A0A6",
"k. c #9FA6A7",
"l. c #9AA5AC",
"z. c #A1A2A3",
"x. c #A0A9AC",
"c. c #A6ACAD",
"v. c #A1ADB1",
"b. c #ABAFB0",
"n. c #AAB0B0",
"m. c #A6B5BE",
"M. c #B9BABA",
"N. c #BCBDBD",
"B. c #B2BEC3",
"V. c #B1BEC5",
"C. c #B7C0C3",
"Z. c #C3C3C4",
"A. c #C2C6C6",
"S. c #C4C5C4",
"D. c gray78",
"F. c #C8C8C7",
"G. c #D3D6D5",
"H. c #DADBDA",
"J. c #D9DFDF",
"K. c #E0E1E0",
"L. c None",
/* pixels */
"L.L.L.L.L.L.L.L.L.L.L.L.L.L.L.L.",
"L.L.L.L.L.H.C.l.j.x.n.L.L.L.L.L.",
"L.L.L.H.V.I s t y f P 9.z.L.L.L.",
"L.L.K.f.+ A o.>.<.o.Z = ~ s.L.L.",
"L.L.m.O U e.*.E R %.w.H & ^ L.L.",
"L.J.F Z w.Y > N N < ) q.C D y.L.",
"L.B.o  .-.-   N q v - >.' & 7.L.",
"L.d.. :.) 2 9 K r b 4 ] -.@ O.L.",
"L.u.o ;.` 2 4 K r b 2 { -.@ 7.L.",
"L.x.$ ' ,.5 : N q , 7 2.) = i.L.",
"L.Z.L z 0.[ l m q 7 X.4.p I n.L.",
"L.L.j.= G 0.1. .} 2.4.S g r.Z.L.",
"L.L.F.8.g p / #.#.T p k @.M.L.L.",
"L.L.L.F.g.! c s s c W t.N.L.L.L.",
"L.L.L.L.L.S.c.a.a.k.M.L.L.L.L.L.",
"L.L.L.L.L.L.L.L.L.L.L.L.L.L.L.L."
};
