/* XPM */
static char *_504110177247[] = {
/* columns rows colors chars-per-pixel */
"32 32 174 2 ",
"   c #04072B",
".  c #050A2B",
"X  c #0E1525",
"o  c #0D172A",
"O  c #0E1C2B",
"+  c #111729",
"@  c #111B2B",
"#  c #060B32",
"$  c #090D34",
"%  c #061134",
"&  c #0C1037",
"*  c #0F1D31",
"=  c #061539",
"-  c #0B1339",
";  c #0B1A3D",
":  c #111E33",
">  c #101A3E",
",  c #0D222F",
"<  c #0D2330",
"1  c #0F2D39",
"2  c #0F2935",
"3  c #112936",
"4  c #14233D",
"5  c #132B3D",
"6  c #182F3C",
"7  c #152034",
"8  c #13343D",
"9  c #131E43",
"0  c #0E2344",
"q  c #152345",
"w  c #152A44",
"e  c #182945",
"r  c #172549",
"t  c #18274C",
"y  c #162B49",
"u  c #182A4D",
"i  c #123C45",
"p  c #183842",
"a  c #1A324E",
"s  c #16304E",
"d  c #1A2E52",
"f  c #173550",
"g  c #1B3154",
"h  c #1E3B53",
"j  c #1D355C",
"k  c #213651",
"l  c #203955",
"z  c #1E3963",
"x  c #1F3C69",
"c  c #213B64",
"v  c #213E6A",
"b  c #14444C",
"n  c #1A424A",
"m  c #16484F",
"M  c #1B4751",
"N  c #154B52",
"B  c #194A53",
"V  c #27445F",
"C  c #324F5B",
"Z  c #34515D",
"A  c #1F4C64",
"S  c #2C4B63",
"D  c #22426E",
"F  c #214762",
"G  c #3C566A",
"H  c #3B5B6D",
"J  c #335369",
"K  c #244472",
"L  c #26487A",
"P  c #294C7E",
"I  c #25477B",
"U  c #3E5D71",
"Y  c #42636F",
"T  c #456877",
"R  c #7D7C7D",
"E  c #2A4D83",
"W  c #2C5186",
"Q  c #2F5589",
"!  c #31568D",
"~  c #30588F",
"^  c #345C95",
"/  c #365E98",
"(  c #3A639E",
")  c #3F65A2",
"_  c #3E6AA4",
"`  c #577B85",
"'  c #5E7C86",
"]  c #557A88",
"[  c #657F88",
"{  c #607C86",
"}  c #406AA6",
"|  c #466EAB",
" . c #4572AC",
".. c #4870AE",
"X. c #4B75B2",
"o. c #4E7DB9",
"O. c #527DBC",
"+. c #64828C",
"@. c #6B868F",
"#. c #6D8A92",
"$. c #668991",
"%. c #7E9094",
"&. c #75959D",
"*. c #769298",
"=. c #5281BE",
"-. c #7C9AA2",
";. c #5682C1",
":. c #5985C4",
">. c #5B89C6",
",. c #5E8CCB",
"<. c #618ECE",
"1. c #6594D2",
"2. c #6995D6",
"3. c #6998D7",
"4. c #6C9BDB",
"5. c #709EDD",
"6. c #72A0DF",
"7. c #73A2E1",
"8. c #858485",
"9. c #808E8F",
"0. c #839394",
"q. c #8E9A9B",
"w. c #86999C",
"e. c #949394",
"r. c #989697",
"t. c #95999B",
"y. c #9A9B9C",
"u. c #96979A",
"i. c #A09F9F",
"p. c #839AA0",
"a. c #A09FA1",
"s. c #8EA2A4",
"d. c #8DA5AB",
"f. c #89A8AE",
"g. c #9DA3A3",
"h. c #93A6A9",
"j. c #94A6A7",
"k. c #92ADB1",
"l. c #9EAFB0",
"z. c #A4A4A5",
"x. c #A7A7A8",
"c. c #A8A7A8",
"v. c #A5ACAC",
"b. c #ADADAD",
"n. c #A0B0B1",
"m. c #B3B3B4",
"M. c #B5B7B8",
"N. c #B6B9BA",
"B. c #BCBDBD",
"V. c #C0BEBE",
"C. c #A8BEC1",
"Z. c #BEBFC1",
"A. c #BFC1C2",
"S. c #BBC9CB",
"D. c #C3C3C4",
"F. c #C8C6C6",
"G. c #C7C7C8",
"H. c #CBCACA",
"J. c #C2C9C9",
"K. c #CFD1D2",
"L. c #D5D4D4",
"P. c #D9D7D8",
"I. c #D3DCDC",
"U. c #DBDADA",
"Y. c #E0DDDD",
"T. c #D5E2E2",
"R. c #E4E4E4",
"E. c #E9ECEB",
"W. c #E5EAEA",
"Q. c #EFEFF0",
"!. c #F4F3F4",
"~. c #FFFEFE",
"^. c #F6F9F8",
"/. c None",
/* pixels */
"/./././././././././././././././././././././././././././././././.",
"/./././././././././././././././././././././././././././././././.",
"/././././././././././.D.P.Y.U.P.K.G.V.m.z./././././././././././.",
"/././././././././.R.~.E.S.d.#.{ { @.w.n.N.m.x./././././././././.",
"/././././././.L.~.E.d.H w = % % $ % ; a H &.v.x.y./././././././.",
"/./././././.E.~.C.J = - 9 r u d d u r > $ ; H p.z.u././././././.",
"/././././.Q.~.-.0 # 9 d j K E ! ! P D j d 9 $ u #.u.e./././././.",
"/./././.R.~.&.= - u j P | <.4.5.4.4.,.} L l t & 0 $.e.e././././.",
"/././.G.~.k.; - u c ( 3.4.O./ ! ! ) ;.5.1.^ c y & y *.8.u./././.",
"/././.~.I.h # u x _ 7.;.E F l l h d j E :.5.( c r # S 0.8./././.",
"/./.G.~.@.# q j / 7...x e M m b N B 5 y v O.5.~ g 9 $ ] 8.u././.",
"/./.!.T.a $ y L 1.:.x w O , b i 3 N b : q K <.,.K u $ S %.8././.",
"/./.~.k.% > j _ 4.Q y * o o b b X b N O : u ^ 7./ g > > #.R /./.",
"/./.~.'   q c :.:.z 4 @ o @ b b X p N 3 @ 4 c <.O.c q # ` e././.",
"/.!.^.H   y L 2.| d n n n n b m n b n n n M F X.<.D r . T g.D./.",
"/.!.W.Z . y P 3.) u 3 < , < m b , 1 b 1 , 1 f | 2.K y . Y g.B./.",
"/.W.P.Z   t P 3.} u < @ @ @ b b X 8 m 6 + 7 g ..1.K t   T g.B./.",
"/.R.U.Y   t K 1.X.d M n n n b N M n n n n M A O.,.D r . ` z.D./.",
"/./.U.+.. q c O.<.v 5 * O O m b O 8 i , , w D 2...j q . &.y././.",
"/./.P.h.; > k ^ 6./ d < o o b i X b b O : g _ 6.! g - w k.r././.",
"/./.G.J.S # t D :.2.I y : 6 b b 8 m 3 : u E 5.o.x r # T v.g././.",
"/././.L.&.= 9 d E 3.<.P d B b b b 3 q g E 1.<.P d 9 = f.r.B././.",
"/././.G.A.H . r j ~ 2.2.( K j g a j K } 5.<.W j q   ] z.y./././.",
"/./././.F.l.l # r j E O.6.2.=.X.X.;.4.5.o.P j q # S l.e.D./././.",
"/./././.Z.D.s.h $ q g v ! X.>.<.<.>...Q v d 9 # F h.r.m././././.",
"/././././.B.B.j.S % > r g j v K K v j d r - = J p.e.b./././././.",
"/./././././.Z.m.v.' g - & > q q q q ; & - l ' t.r.m.L./././././.",
"/./././././././.M.b.g.+.G a w > ; w k G [ q.y.y.D./././././././.",
"/././././././././.A.m.c.z.y.w.%.%.0.t.y.y.a.M.K././././././././.",
"/./././././././././././.N.b.c.z.z.z.x.m.A.K././././././././././.",
"/./././././././././././././././././././././././././././././././.",
"/./././././././././././././././././././././././././././././././."
};
