/* XPM */
static char *_504110169008[] = {
/* columns rows colors chars-per-pixel */
"64 64 219 2 ",
"   c #07081E",
".  c #050324",
"X  c #06042A",
"o  c #08062C",
"O  c #060A2D",
"+  c #09092C",
"@  c #080D21",
"#  c #0C1424",
"$  c #0C1629",
"%  c #0D1A2B",
"&  c #091727",
"*  c #141C2B",
"=  c #141726",
"-  c #0B0D32",
";  c #070D32",
":  c #0C1136",
">  c #0E153A",
",  c #0B1C3C",
"<  c #0C1A31",
"1  c #101D32",
"2  c #10173C",
"3  c #11193D",
"4  c #0F212C",
"5  c #11232E",
"6  c #0E2538",
"7  c #122135",
"8  c #13233C",
"9  c #142B38",
"0  c #11323B",
"q  c #131D42",
"w  c #0E2645",
"e  c #152245",
"r  c #162944",
"t  c #16254A",
"y  c #142C4A",
"u  c #192A4D",
"i  c #182848",
"p  c #123E46",
"a  c #173749",
"s  c #1A2D52",
"d  c #1C3155",
"f  c #1A3B54",
"g  c #1E355A",
"h  c #183857",
"j  c #0F3B42",
"k  c #253B45",
"l  c #233A47",
"z  c #20395E",
"x  c #213556",
"c  c #213B63",
"v  c #233F68",
"b  c #283E64",
"n  c #12444B",
"m  c #1B434C",
"M  c #14484F",
"N  c #16434A",
"B  c #144650",
"V  c #144B52",
"C  c #1A4C53",
"Z  c #1B4858",
"A  c #16535B",
"S  c #19545C",
"D  c #22454D",
"F  c #25464F",
"G  c #224953",
"H  c #244454",
"J  c #25515C",
"K  c #1D4862",
"L  c #195B63",
"P  c #25416C",
"I  c #254C67",
"U  c #265568",
"Y  c #274472",
"T  c #284674",
"R  c #294876",
"E  c #2B4B7C",
"W  c #295D73",
"Q  c #1A626B",
"!  c #2C6579",
"~  c #346B7C",
"^  c #3B707F",
"/  c #7B7D7F",
"(  c #2C4F82",
")  c #2C4E8A",
"_  c #2E5184",
"`  c #2D538C",
"'  c #31568B",
"]  c #32598F",
"[  c #2E5592",
"{  c #2F599A",
"}  c #2F5897",
"|  c #335C94",
" . c #335D9A",
".. c #387787",
"X. c #35619C",
"o. c #366F81",
"O. c #315EA4",
"+. c #2F5CA0",
"@. c #3563A3",
"#. c #396AAB",
"$. c #3564A9",
"%. c #3B6CB3",
"&. c #396AB5",
"*. c #3D71B6",
"=. c #3F74B9",
"-. c #427C89",
";. c #7D7F81",
":. c #4275BC",
">. c #4378BE",
",. c #406FB9",
"<. c #457AC1",
"1. c #4A7DC4",
"2. c #4A7AC5",
"3. c #507FC7",
"4. c #837F81",
"5. c #3C8192",
"6. c #478693",
"7. c #558C94",
"8. c #538E99",
"9. c #56929A",
"0. c #4E838E",
"q. c #7E8082",
"w. c #67969B",
"e. c #7C9B9D",
"r. c #73989B",
"t. c #549AA6",
"y. c #6C9CA1",
"u. c #649AA0",
"i. c #799FA1",
"p. c #69A5AB",
"a. c #7BA1A4",
"s. c #75A4A7",
"d. c #75B3B9",
"f. c #70ACB3",
"g. c #4C82C6",
"h. c #4D83C9",
"j. c #5384CA",
"k. c #5A8BCE",
"l. c #5788CD",
"z. c #598CD0",
"x. c #5E91D3",
"c. c #618ED4",
"v. c #6393D5",
"b. c #6C9BDA",
"n. c #6998D7",
"m. c #719DDD",
"M. c #74A2DD",
"N. c #7AA7DF",
"B. c #7CA5E1",
"V. c #7CA7E0",
"C. c #828385",
"Z. c #8A8B8D",
"A. c #878789",
"S. c #8D8F91",
"D. c #8F9092",
"F. c #87999A",
"G. c #939496",
"H. c #989597",
"J. c #959799",
"K. c #969A9B",
"L. c #9B9C9D",
"P. c #9B9798",
"I. c #928D8D",
"U. c #A19D9E",
"Y. c #9D9FA0",
"T. c #A39FA0",
"R. c #87A7AA",
"E. c #9DA1A2",
"W. c #98AAAB",
"Q. c #90B6BA",
"!. c #A3A3A4",
"~. c #A5A6A8",
"^. c #A6A9AA",
"/. c #ABACAD",
"(. c #ABA6A7",
"). c #ACAFB0",
"_. c #ABB2B3",
"`. c #B2B3B5",
"'. c #B5B9BA",
"]. c #BBBCBD",
"[. c #B7B6B7",
"{. c #B2ADAE",
"}. c #C1BCBC",
"|. c #BEBFC0",
" X c #83ACE4",
".X c #88AFE7",
"XX c #8BB2E6",
"oX c #8DB4E8",
"OX c #87B0E4",
"+X c #91B6E9",
"@X c #95B9EA",
"#X c #97BBEA",
"$X c #80BFC6",
"%X c #C1BFC0",
"&X c #93C9CD",
"*X c #8DC5C9",
"=X c #BDC1C1",
"-X c #B5C7C9",
";X c #A7CCCE",
":X c #C2C3C4",
">X c #C6C7C8",
",X c #CBCBCC",
"<X c #C7C9CA",
"1X c #D3CDCD",
"2X c #CFD1D1",
"3X c #D3D4D5",
"4X c #D6D8D9",
"5X c #DBDBDC",
"6X c #D9D7D7",
"7X c #E4DFDE",
"8X c #E3E3E4",
"9X c #EBEBEB",
"0X c #EBE6E5",
"qX c #F1EBEB",
"wX c #F4F4F5",
"eX c #FEFEFE",
"rX c #F9F7F7",
"tX c #EFF0F0",
"yX c None",
/* pixels */
"yXyXyXyXyXyXyXyXyXyXyXyXyXyXyXyXyXyXyXyXyXyXyXyXyXyXyXyXyXyXyXyXyXyXyXyXyXyXyXyXyXyXyXyXyXyXyXyXyXyXyXyXyXyXyXyXyXyXyXyXyXyXyXyX",
"yXyXyXyXyXyXyXyXyXyXyXyXyXyXyXyXyXyXyXyXyXyXyXyXyXyXyXyXyXyXyXyXyXyXyXyXyXyXyXyXyXyXyXyXyXyXyXyXyXyXyXyXyXyXyXyXyXyXyXyXyXyXyXyX",
"yXyXyXyXyXyXyXyXyXyXyXyXyXyXyXyXyXyXyXyXyXyXyXyXyXyXyXyXyXyXyXyXyXyXyXyXyXyXyXyXyXyXyXyXyXyXyXyXyXyXyXyXyXyXyXyXyXyXyXyXyXyXyXyX",
"yXyXyXyXyXyXyXyXyXyXyXyXyXyXyXyXyXyXyXyXyXyXyXyXyXyXyXyXyX5X5X7X5X5X3XyXyXyXyXyXyXyXyXyXyXyXyXyXyXyXyXyXyXyXyXyXyXyXyXyXyXyXyXyX",
"yXyXyXyXyXyXyXyXyXyXyXyXyXyXyXyXyXyXyXyXyXyXyXyX|.2X6X6X3X3X3X,X,X>X:X|.].'./.!.yXyXyXyXyXyXyXyXyXyXyXyXyXyXyXyXyXyXyXyXyXyXyXyX",
"yXyXyXyXyXyXyXyXyXyXyXyXyXyXyXyXyXyXyXyXyX2X9X9X9X8X8X8X8X5X6X3X2X2X,X<X>X=X|.].`.`.~.yXyXyXyXyXyXyXyXyXyXyXyXyXyXyXyXyXyXyXyXyX",
"yXyXyXyXyXyXyXyXyXyXyXyXyXyXyXyXyXyX`.8XrXwXtXtX9X8X3X:X'._.W.W.W.W.^._.{.`.].].].`._.{.~.yXyXyXyXyXyXyXyXyXyXyXyXyXyXyXyXyXyXyX",
"yXyXyXyXyXyXyXyXyXyXyXyXyXyXyXyXyX8XeXeXrXrX0X<X_.a.w.-.~ W U U U U ! o.0.w.a.E.^.{.`.{.^.^.!.yXyXyXyXyXyXyXyXyXyXyXyXyXyXyXyXyX",
"yXyXyXyXyXyXyXyXyXyXyXyXyXyXyX2XeXeXeXeX7X'.s.0.W h , O X X @ X @ X X X O 8 h ! 8.s.E.~./.^.~.!.L.yXyXyXyXyXyXyXyXyXyXyXyXyXyXyX",
"yXyXyXyXyXyXyXyXyXyXyXyXyXyX9XeXeXeX0X_.w.o.h - X - > 2 3 q q q q 3 3 3 2 : - o : h ..s.L.!.~.E.Y.L.yXyXyXyXyXyXyXyXyXyXyXyXyXyX",
"yXyXyXyXyXyXyXyXyXyXyXyXyXrXeXeXrX:Xy.o.y X ; > 3 q e t t t t i u t i i e e 8 2 : ; o h ..s.J.!.Y.L.K.yXyXyXyXyXyXyXyXyXyXyXyXyX",
"yXyXyXyXyXyXyXyXyXyXyX].eXeXeX0XW.6.h X - q q q t u u s d g g g g g d d s s t t q q > O X K t.F.P.L.J.G.L.yXyXyXyXyXyXyXyXyXyXyX",
"yXyXyXyXyXyXyXyXyXyX|.eXeXeX6Xa.o.; ; > q e i u s g x c P P P Y Y P P c z g g d s t q q 2 o > 5.a.G.P.G.S.L.yXyXyXyXyXyXyXyXyXyX",
"yXyXyXyXyXyXyXyXyX[.eXeXeX1Xy.U X - q q t u d g c Y E _ ]  .X.@.@.X.X.` _ R P z g s u t q 2 - o ! s.G.G.D.Z.yXyXyXyXyXyXyXyXyXyX",
"yXyXyXyXyXyXyXyXyXeXeXeX1Xu.K X > q e u s g c T _ | #.*.g.k.v.n.n.v.l.g.*.@.X.E Y c d s u q q - . W s.Z.G.Z.Z.yXyXyXyXyXyXyXyXyX",
"yXyXyXyXyXyXyXyX9XeXeX6Xy.K X 2 q e u d g Y _ X.*.j.M.XXoXXX XB.B. XoXoXOXb.g.#.| ( v z s u q q : . ! s.Z.Z.A.Z.yXyXyXyXyXyXyXyX",
"yXyXyXyXyXyXyX3XeXeXqXa.U X : q q s g c R | %.l. X+XB.l.,.&.@.O.O.O.%.>.x. XoXB.g.#.] T c s u e q : X o.i.A.A.C.G.yXyXyXyXyXyXyX",
"yXyXyXyXyXyXyXeXeXrXW...X : q t u g c E X.<.M.@Xb.,.+.[ ( R T P Y R E _ [ O.<.B.@Xn.=.| E c s u q > ; ; 6.F.A.C.;.yXyXyXyXyXyXyX",
"yXyXyXyXyXyX9XeXeX>X8.> - q q u d v ( @.h.oX X<. .) Y P z x x x s s x c v R _ $.j.oX X>. .E z d u q q ; w p.A.A.q.S.yXyXyXyXyXyX",
"yXyXyXyXyX[.eXeX9Xs.K X > q t d c E @.h.+Xm.$.` Y z J J H H Z G G H i e s g c E [ *. XOX<.| R z s q q : X W s.C.C.;.yXyXyXyXyXyX",
"yXyXyXyXyX9XeXeX'.5.X > q e s z R X.1.oXb.$.) v g r J S M M M M M C L f 1 r s z Y ` &. X X:.| Y g s q q : - t.q.q.q.S.yXyXyXyXyX",
"yXyXyXyXyXeXeXqXs.f X > q u g P ] =. XB.O.) c d r 1 f V n n n p M M N L N 1 8 u g v ) &.oXm.%._ v d u q > X I s.4.q.;.yXyXyXyXyX",
"yXyXyXyX3XeXeX=X6.O : q t s c E #.b.XX&._ c d r 7 7 % % V n V 0 & V V n Q 7 1 8 i d v [ <.@Xz.@.R g s q q - - t.A.q.;.K.yXyXyXyX",
"yXyXyXyXwXeXeXR.I . > q u g P | g.@X3.[ Y d r 7 5 % % % C n V N # 4 S N A M $ 1 8 r g T { v.oX:.[ v s u q : X o.e.4.q.A.yXyXyXyX",
"yXyXyXyXeXeX7X9.6 + 3 e u z E #.M.B.O.E g r 9 1 % % $ % C n V p # @ N C n L % 4 1 8 u z E %.oXv.@.R g s q 2 o a p.4.C.q.yXyXyXyX",
"yXyXyX:XeXeX:X6.. : q t d P ] <.oXh.` v s e 1 1 $ $ & = V n V p @ # 0 A j S 5 & 1 1 e d P { v.OX%._ c s t q : O t.A.C./ L.yXyXyX",
"yXyXyX5XeXeXW.W   : q u g P X.v..X$.E g r 7 % % & & & = C n V p @ @ 9 S p A 0 & % 1 8 i c _ =.oXj.| v s t q : . ..F.Z.C.G.yXyXyX",
"yXyXyX9XeXeXR.B . 2 q s g E #.N.b.{ P s 8 1 % $ # # # # C N V p # # 4 A 0 V p # $ * 1 8 d T @. Xn.@.Y g s q : . U a.L.L.L.yXyXyX",
"yXyXyXwXeXqXs.9 . > e s c _ :.XXl.` v r l F k k k D k k C n V M k k D D D D D k k k l H J P [ b.N.#.E g u q 2 . m s.U.L.L.yXyXyX",
"yXyXyXwXeX7X9.& @ 2 e s c ' >.oX<.) z 8 l L M M M M V N V p V M S M M n M M M M C M C A Q I ) k.OX*.E z s e 2 + r f.U.L.K.yXyXyX",
"yXyXyXwXeX6X7.@ + 2 i d v ] g.oX,.( g e r p 0 0 0 9 0 5 C n V N 0 0 0 0 0 0 0 0 0 0 0 a m x ) j.oX:._ c s t > + < f.U.L.J.yXyXyX",
"yXyXyX9XwX3X7.# + 2 t d v ] j.oX%.E g e 7 # # # # # @ # C N V p   # = M 0 N n   # # % 1 r z ( g.oX>._ c s e 3 O % d.!.L.G.yXyXyX",
"yXyXyX5X8X,X7.& + 2 e d P ] h.oX%.E g r 1 * $ & & # # # C n V p # # 4 C N M M # & $ 1 1 u c ) 3.oX:._ c s t 2 + & d.!.H.J.yXyXyX",
"yXyXyX5X7X,X9.& @ 3 e d c ' g.oX>.( g r 7 7 5 * * * 5 = C n V p = = 4 C p m N = * * 7 9 l z _ l.XX=.( c s t 2 o 6 $X(.K.J.yXyXyX",
"yXyXyX6X7X1Xw.6 @ 2 t s z _ >.oX3._ c t l J m G D G G m C n V M F D D m D m D D m G G G U I [ v. X%.E g s q 2 . r &XT.H.K.yXyXyX",
"yXyXyX3X5X3Xa.p . 2 e s c E #. Xv.[ v i H L M M n n n p V N V M S M n n n n n N M V V A L R  .B.M.@.R g u q : . Z &XU.H.P.yXyXyX",
"yXyXyX,X5X6XR.U   : q s g R @.b. XO.v g 9 9 7 5 4 4 4 = V n V p 4 4 9 0 0 0 5 4 5 5 9 r f P %.oXl. .P g i q >   ~ -XP.G.E.yXyXyX",
"yXyXyX=X5X5X).^   - q t d P | h.+X<.) c y 7 1 $ # & & # C n V N   # 9 C j V 4 4 % 1 8 u v ` j.oX>.` c d t q : X t.'.K.G.{.yXyXyX",
"yXyXyXyX6X6X].9.; - q t d c ) =. Xn.{ Y d 8 7 % % % = & C n C p # # p N n M # % * 8 r g R @. Xm.@.R x s e 3 ; , $X/.G.G.|.yXyXyX",
"yXyXyXyX3X3X,Xa.f o > q u x T  .k.+X=.) P s r 7 % % % # C n V p @ = N n M 0 & 4 7 e d P [ 3.@Xg.X.P g u q > X K ;XL.G.K.yXyXyXyX",
"yXyXyXyX<X3X3XW.o.. 2 q t x c _ *. XM.O.( z u e 7 * * * m n Z n 4 k j N M $ 1 7 r s c _ %.XXb.#.( c s t q : X t.=XJ.G.~.yXyXyXyX",
"yXyXyXyX].3X2X}.t.w + 3 q s g Y  .h.#Xk.} R g i r 1 a G N n p B D N n M 0 1 9 e u c E @.m.oX>.] v g u q > O y &X~.J.D.].yXyXyXyX",
"yXyXyXyXyX,X,X1XE.! . > q u s c ( $.x.#X2.{ E c s e Z A M B n n M V n 9 1 8 i g v E { c.#Xh.X.R z s e q : X 6.-XG.G.K.3XyXyXyXyX",
"yXyXyXyXyX:X,X,X[.u.y + 2 q s g v ' #.n.#Xh.{ E P s Z S n n m B p 0 5 7 i u z v ) O.c.#Xz.@._ c d t q q O y &X(.G.D.`.yXyXyXyXyX",
"yXyXyXyXyXyX>X>X,XE.5.O : q t s g P ' *.n.#Xx.$._ R c u i r r e e r s g z v E [ %.b.#Xz.#._ c g u t q - O t.=XG.G.K.2XyXyXyXyXyX",
"yXyXyXyXyXyX:X:X:X].a.I X > q t d g P ' %.z.@XB.2.O.` ( R P c v c c v T ( [ O.l.oXXXh.@._ P g u q q : X ! ;XL.G.D.'.yXyXyXyXyXyX",
"yXyXyXyXyXyXyX:X:X>X/.u.y o > q r s g P _ @.1.V.@XN.j.%.O.} ` _ ` [ } O.%.k. X@Xb.:.X._ c g u t q > X h *X(.D.G.E.3XyXyXyXyXyXyX",
"yXyXyXyXyXyXyXyX:X:X:XE.8.q - > q t u g P E } %.j.M.oXoXB.n.c.l.k.c.b. X+XoXb.2.#.' R c g u t q q X w d.`.G.G.G.<XyXyXyXyXyXyXyX",
"yXyXyXyXyXyXyXyX|.].:X%XE.8., O 2 q t s g c v )  .#.>.k.b.V.OXOXOXOXN.n.j.:.$.| ( v g g u q q : X w p._.J.G.S.'.4XyXyXyXyXyXyXyX",
"yXyXyXyXyXyXyXyXyX|.].].].K.8.w o 2 q q u s g c P E '  .@.#.=.=.*.%.#.@.| _ E v z g s t q q > X w p.).K.G.S.{.4XyXyXyXyXyXyXyXyX",
"yXyXyXyXyXyXyXyXyXyX].'.].].K.9.h X : q q q s d d z v P T E ( ( E E E T P c g d s u q q q : X K p.T.G.F.S.~.4XyXyXyXyXyXyXyXyXyX",
"yXyXyXyXyXyXyXyXyXyXyX].`.`.].~.y.W ; ; 2 q q t u s s x g z g c z c g g d d s s t q q > ; > o.i.P.J.J.S.~.3X3XyXyXyXyXyXyXyXyXyX",
"yXyXyXyXyXyXyXyXyXyXyXyX].`.`.[./.F.0.h o ; 2 q q e t t u s s s d u u u u t e q q q o ; Z 8.F.G.K.G.S.).4X4XyXyXyXyXyXyXyXyXyXyX",
"yXyXyXyXyXyXyXyXyXyXyXyXyX|.`._.`.{.T.i.-.h - - : 2 3 q q q q e t e e q q > > - o ; c -.e.G.J.K.G.D.`.4X3XyXyXyXyXyXyXyXyXyXyXyX",
"yXyXyXyXyXyXyXyXyXyXyXyXyXyXyX`./.{.`.(.Y.e.0.U i : O + - : : : : : : ; o o : u W 7.i.D.J.K.G.D.Y.:X4XyXyXyXyXyXyXyXyXyXyXyXyXyX",
"yXyXyXyXyXyXyXyXyXyXyXyXyXyXyXyX]./.^.).).(.!.F.r.0.~ I f r 8 6 8 8 r f U ^ 7.r.F.J.P.K.K.D.G.{.2X4XyXyXyXyXyXyXyXyXyXyXyXyXyXyX",
"yXyXyXyXyXyXyXyXyXyXyXyXyXyXyXyXyXyX[.^.~.^./.~.!.Y.Y.F.e.r.r.w.w.w.r.F.F.G.J.P.L.K.J.D.G.^.<X4X4XyXyXyXyXyXyXyXyXyXyXyXyXyXyXyX",
"yXyXyXyXyXyXyXyXyXyXyXyXyXyXyXyXyXyXyXyX'.^.!.!.!.~.~.T.T.U.L.L.U.P.L.L.L.L.L.K.G.D.K.{.<X4X4XyXyXyXyXyXyXyXyXyXyXyXyXyXyXyXyXyX",
"yXyXyXyXyXyXyXyXyXyXyXyXyXyXyXyXyXyXyXyXyXyX:X`.~.T.Y.Y.L.Y.Y.K.L.L.K.J.G.G.J.Y./.|.2X4X4XyXyXyXyXyXyXyXyXyXyXyXyXyXyXyXyXyXyXyX",
"yXyXyXyXyXyXyXyXyXyXyXyXyXyXyXyXyXyXyXyXyXyXyXyXyXyX|.`.).(.~.!.!.!.!./.`.'.>X2X4X3XyXyXyXyXyXyXyXyXyXyXyXyXyXyXyXyXyXyXyXyXyXyX",
"yXyXyXyXyXyXyXyXyXyXyXyXyXyXyXyXyXyXyXyXyXyXyXyXyXyXyXyXyXyX5X5X5X5X5X5X5X8XyXyXyXyXyXyXyXyXyXyXyXyXyXyXyXyXyXyXyXyXyXyXyXyXyXyX",
"yXyXyXyXyXyXyXyXyXyXyXyXyXyXyXyXyXyXyXyXyXyXyXyXyXyXyXyXyXyXyXyXyXyXyXyXyXyXyXyXyXyXyXyXyXyXyXyXyXyXyXyXyXyXyXyXyXyXyXyXyXyXyXyX",
"yXyXyXyXyXyXyXyXyXyXyXyXyXyXyXyXyXyXyXyXyXyXyXyXyXyXyXyXyXyXyXyXyXyXyXyXyXyXyXyXyXyXyXyXyXyXyXyXyXyXyXyXyXyXyXyXyXyXyXyXyXyXyXyX",
"yXyXyXyXyXyXyXyXyXyXyXyXyXyXyXyXyXyXyXyXyXyXyXyXyXyXyXyXyXyXyXyXyXyXyXyXyXyXyXyXyXyXyXyXyXyXyXyXyXyXyXyXyXyXyXyXyXyXyXyXyXyXyXyX"
};
